# xmcd
#
# Track frame offsets:
#	150
#	16478
#	32371
#	49538
#	65748
#	81076
#	96544
#	121534
#	144278
#	155751
#	173218
#	193806
#
# Disc length: 2872 seconds
#
# Revision: 0
# Processed by: cddbd v1.5.2PL0 Copyright (c) Steve Scherf et al.
# Submitted via: EasyCDDAExtractor 9.1.3.1
#
DISCID=9b0b360c
DTITLE=Josh Turner - Everything Is Fine
DYEAR=2007
DGENRE=Country
TTITLE0=Everything Is Fine
TTITLE1=Firecracker
TTITLE2=Another Try
TTITLE3=So Not My Baby
TTITLE4=Trailerhood
TTITLE5=Baby, I Go Crazy
TTITLE6=Nowhere Fast
TTITLE7=The Longer The Waiting
TTITLE8=One Woman Man
TTITLE9=Soulmate
TTITLE10=The Way He Was Raised
TTITLE11=South Carolina Low Country
EXTD=
EXTT0=
EXTT1=
EXTT2=
EXTT3=
EXTT4=
EXTT5=
EXTT6=
EXTT7=
EXTT8=
EXTT9=
EXTT10=
EXTT11=
PLAYORDER=
